<?xml version="1.0" encoding="UTF-8" standalone="yes"?>
<svg version="1.2" viewBox="0 0 171.83607 171.83608" xml:space="preserve" width="171.83607" height="171.83607" baseProfile="tiny-ps" xmlns="http://www.w3.org/2000/svg">
  <title>bimi-svg-tiny-12-ps</title>
  <defs id="defs207"/>
  <g id="layer1" transform="translate(-22.1)">
    <g id="g43" transform="translate(-108,-45.500152)">
      <g id="g45">
        <polygon class="st1" points="222.4,110.1 208.4,111 216.8,118.8 " id="polygon47" fill="#E45B5C"/>
        <polygon class="st2" points="198.2,112.2 208.4,111 207,102.3 " id="polygon49" fill="#2C7693"/>
        <polygon class="st3" points="198.2,112.2 207,102.3 204.3,97.7 " id="polygon51" fill="#773F45"/>
        <polygon class="st4" points="221.7,105.4 208.4,111 222.4,110.1 " id="polygon53" fill="#FBD089"/>
        <polygon class="st5" points="207,102.3 208.4,111 212.7,101 " id="polygon55" fill="#58C0EE"/>
        <polygon class="st3" points="161.9,145.8 165.2,151.6 172.1,148.5 " id="polygon57" fill="#773F45"/>
        <polygon class="st6" points="221,151.4 212,154.3 223.1,165.6 " id="polygon59" fill="#1C4C63"/>
        <polygon class="st1" points="157.7,152.2 165.2,151.6 161.9,145.8 " id="polygon61" fill="#E45B5C"/>
        <polygon class="st4" points="157.7,152.2 168.6,156.8 165.2,151.6 " id="polygon63" fill="#FBD089"/>
        <polygon class="st5" points="168.2,163 168.6,156.8 185.5,160.5 208,165.6 " id="polygon65" fill="#58C0EE"/>
        <polygon class="st6" points="168.2,163 168.6,156.8 157.7,152.2 " id="polygon67" fill="#1C4C63"/>
        <polygon class="st2" points="185.5,160.5 186.9,142 204.5,159 " id="polygon69" fill="#2C7693"/>
        <polygon class="st2" points="221,151.4 223.1,165.6 231.2,165.6 " id="polygon71" fill="#2C7693"/>
        <polygon class="st3" points="202.9,129.1 186.9,142 204.5,159 203.4,138.9 " id="polygon73" fill="#773F45"/>
        <polygon class="st4" points="203.4,138.9 204.5,159 212,154.3 206.2,138.4 202.9,129.1 " id="polygon75" fill="#FBD089"/>
        <polygon class="st5" points="202.9,129.1 208.4,111 198.2,112.2 " id="polygon77" fill="#58C0EE"/>
        <polygon class="st1" points="222.9,135.3 211.8,154.2 221,151.5 " id="polygon79" fill="#E45B5C"/>
        <polygon class="st6" points="222.9,135.3 202.9,129.1 206.2,138.4 212,154.3 " id="polygon81" fill="#1C4C63"/>
        <polygon class="st4" points="202.9,129.1 221,125.9 216.8,118.9 " id="polygon83" fill="#FBD089"/>
        <polygon class="st2" points="242.1,134 230.9,133.8 238.5,136.8 " id="polygon85" fill="#2C7693"/>
        <polygon class="st3" points="202.9,129.1 216.8,118.9 208.4,111 " id="polygon87" fill="#773F45"/>
        <polygon class="st1" points="221,125.9 230.9,133.8 231.5,125.9 " id="polygon89" fill="#E45B5C"/>
        <polygon class="st6" points="231.5,125.9 230.9,133.8 242.1,134 " id="polygon91" fill="#1C4C63"/>
        <polygon class="st3" points="221,125.9 222.9,135.3 230.9,133.8 " id="polygon93" fill="#773F45"/>
        <polygon class="st2" points="202.9,129.1 222.9,135.3 221,125.9 " id="polygon95" fill="#2C7693"/>
        <polygon class="st6" points="185.5,160.5 204.5,159 208,165.6 " id="polygon97" fill="#1C4C63"/>
        <path class="st6" d="m 212.7,101 -4.3,10 13.3,-5.6 z" id="path99" fill="#1C4C63"/>
        <path class="st7" d="m 213.3,107.8 c -0.2,0.1 -0.4,0.2 -0.6,0.2 -0.7,0 -1.3,-0.6 -1.3,-1.3 0,-0.7 0.6,-1.3 1.3,-1.3 0.4,0 0.8,0.2 1,0.5 -0.6,0 -1,0.5 -1,1 0,0.4 0.2,0.8 0.6,0.9 z" id="path101" fill="#FFFFFF"/>
        <g id="g103">
          <polygon class="st3" points="145.3,110.5 152.3,105 202.9,129.1 " id="polygon105" fill="#773F45"/>
          <polygon class="st6" points="139,108.5 130.1,125.5 202.9,129.1 " id="polygon107" fill="#1C4C63"/>
          <polygon class="st5" points="142.6,137 184.1,128.2 135.8,125.8 " id="polygon109" fill="#58C0EE"/>
          <polygon class="st1" points="184.1,128.2 202.9,129.1 197.9,133.1 " id="polygon111" fill="#E45B5C"/>
          <polygon class="st1" points="156.7,142.2 184.1,128.2 149.1,135.6 " id="polygon113" fill="#E45B5C"/>
          <polygon class="st3" points="169.5,135.6 184.1,128.2 197.9,133.1 " id="polygon115" fill="#773F45"/>
        </g>
      </g>
      <g id="g117">
        <g id="g119">
          <path class="st6" d="m 283.3,162.7 c 1.8,0 3.6,-0.4 5.4,-1.2 2.6,-1.2 4.3,-3.6 4.3,-6 0,-1.1 -0.4,-2.9 -2.4,-4.6 -0.2,-0.2 -0.5,-0.4 -0.9,-0.7 -0.4,-0.3 -0.8,-0.5 -1.4,-0.7 0,0 -0.1,0 -0.1,0 -0.1,0 -0.1,-0.1 -0.2,-0.1 v 0 c -0.5,-0.2 -1,-0.3 -1.6,-0.5 -0.7,-0.1 -1.5,-0.2 -2.3,-0.2 -1.2,0 -2.3,0.2 -3.4,0.6 -1.1,0.4 -2,0.9 -2.8,1.6 -0.8,0.7 -1.5,1.5 -1.9,2.4 -0.5,0.9 -0.7,2 -0.7,3.1 0,0.4 0,0.8 0.1,1.1 0.7,0.6 1.3,1 2,1.5 0,-0.1 -0.1,-0.1 -0.1,-0.2 -0.3,-0.7 -0.4,-1.5 -0.4,-2.4 0,-0.9 0.2,-1.7 0.6,-2.4 0.4,-0.8 0.9,-1.4 1.5,-1.9 0.6,-0.5 1.4,-1 2.3,-1.3 0.9,-0.3 1.8,-0.4 2.8,-0.4 1.1,0 2,0.1 2.7,0.3 0.2,0.1 0.4,0.2 0.6,0.2 2.5,1.2 3.9,2.8 3.9,4.6 0,1.8 -1.4,3.7 -3.3,4.6 -2.9,1.3 -5.9,1.4 -8.8,0.2 -4.9,-2 -9.2,-7.2 -12.1,-14.7 l -1.5,0.6 c 3.1,7.9 7.8,13.5 13,15.6 1.5,0.6 3.1,0.9 4.7,0.9 z" id="path121" fill="#1C4C63"/>
          <path class="st6" d="m 301.5,153.8 c -0.4,-0.2 -0.8,-0.1 -1,0.3 -0.8,1.5 -1.6,2.8 -2.4,3.8 -0.9,1.3 -1.9,2.3 -2.8,3 -0.9,0.8 -1.9,1.4 -2.9,1.8 -1,0.4 -2,0.8 -3,0.9 -1,0.2 -2,0.2 -3.1,0.2 -0.6,0 -1.3,-0.1 -2,-0.2 -0.7,-0.1 -1.4,-0.3 -2.1,-0.6 -0.1,0 -0.2,-0.1 -0.2,-0.1 -1.2,-0.1 -2.4,-0.4 -3.6,-0.9 -0.3,-0.1 -0.7,-0.3 -1,-0.5 0.5,0.6 1.1,1.2 1.8,1.6 0.7,0.5 1.5,0.9 2.3,1.3 0.8,0.3 1.6,0.6 2.4,0.7 0.8,0.2 1.6,0.2 2.3,0.2 1.4,0 2.7,-0.1 4,-0.4 1.3,-0.3 2.5,-0.7 3.6,-1.3 1.1,-0.6 2.2,-1.4 3.3,-2.5 1,-1 2.1,-2.3 3.1,-3.8 0.6,-0.8 1.1,-1.8 1.7,-2.8 0.1,0 0,-0.5 -0.4,-0.7 z" id="path123" fill="#1C4C63"/>
        </g>
        <g id="g125">
          <g id="g127">
            <path class="st5" d="m 256.5,132.9 c -4.6,-1.7 -9.8,-1.4 -14.4,1.2 -8.1,4.7 -10.9,15 -6.2,23.1 4.2,7.3 13,10.2 20.6,7.3 2.6,-4.7 4.1,-10.1 4.1,-15.8 0,-5.8 -1.5,-11.2 -4.1,-15.8 z" id="path129" fill="#58C0EE"/>
            <path class="st2" d="m 253.2,132 c -3.7,-0.6 -7.7,0 -11.2,2 -8.1,4.7 -10.9,15 -6.2,23.1 3.6,6.3 10.6,9.3 17.4,8.2 3.2,-4.8 5.1,-10.5 5.1,-16.7 0,-6.1 -1.9,-11.8 -5.1,-16.6 z" id="path131" fill="#2C7693"/>
            <path class="st6" d="m 250.2,131.8 c -2.8,0 -5.6,0.8 -8.2,2.3 -8.1,4.7 -10.9,15 -6.2,23.1 3.1,5.3 8.6,8.3 14.4,8.4 3.6,-4.7 5.8,-10.5 5.8,-16.9 0,-6.4 -2.1,-12.2 -5.8,-16.9 z" id="path133" fill="#1C4C63"/>
            <path class="st1" d="m 247.5,132.1 c -1.9,0.3 -3.7,1 -5.4,2 -8.1,4.7 -10.9,15 -6.2,23.1 2.6,4.5 6.9,7.3 11.6,8.2 3.9,-4.5 6.2,-10.3 6.2,-16.6 0,-6.5 -2.3,-12.3 -6.2,-16.7 z" id="path135" fill="#E45B5C"/>
            <path class="st3" d="m 245,132.7 c -1,0.3 -2,0.8 -2.9,1.3 -8.1,4.7 -10.9,15 -6.2,23.1 2.1,3.7 5.4,6.2 9.1,7.5 4,-4.1 6.4,-9.8 6.4,-16 0,-6.1 -2.5,-11.7 -6.4,-15.9 z" id="path137" fill="#773F45"/>
            <path class="st4" d="m 249.1,148.7 c 0,-5.9 -2.5,-11.2 -6.4,-15 -0.2,0.1 -0.4,0.2 -0.6,0.3 -8.1,4.7 -10.9,15 -6.2,23.1 1.7,2.9 4.1,5.1 6.8,6.5 3.9,-3.7 6.4,-9 6.4,-14.9 z" id="path139" fill="#FBD089"/>
            <path class="st8" d="m 246.8,148.7 c 0,-5.5 -2.4,-10.3 -6.1,-13.7 -7,5 -9.1,14.6 -4.8,22.2 1.2,2.1 2.9,3.9 4.8,5.3 3.7,-3.5 6.1,-8.4 6.1,-13.8 z" id="path141" fill="#827A5C"/>
            <path class="st5" d="m 244.5,148.7 c 0,-4.9 -2.2,-9.3 -5.6,-12.2 -5.5,5.3 -7,13.8 -3,20.7 0.8,1.4 1.8,2.7 3,3.8 3.4,-3.1 5.6,-7.4 5.6,-12.3 z" id="path143" fill="#58C0EE"/>
            <path class="st2" d="m 242.2,148.7 c 0,-4.2 -1.9,-8 -4.9,-10.5 -4.2,5.3 -5,12.8 -1.4,19 0.4,0.7 0.9,1.4 1.4,2.1 3,-2.6 4.9,-6.4 4.9,-10.6 z" id="path145" fill="#2C7693"/>
            <path class="st6" d="m 239.9,148.7 c 0,-3.4 -1.5,-6.5 -3.9,-8.6 -3,5.1 -3.3,11.6 -0.1,17.1 0,0.1 0.1,0.1 0.1,0.2 2.4,-2.2 3.9,-5.3 3.9,-8.7 z" id="path147" fill="#1C4C63"/>
            <path class="st1" d="m 234.9,142.2 c -1.7,4 -1.8,8.7 0,12.9 1.6,-1.7 2.6,-3.9 2.6,-6.5 0.1,-2.4 -0.9,-4.7 -2.6,-6.4 z" id="path149" fill="#E45B5C"/>
            <path class="st3" d="m 234.1,144.8 c -0.6,2.5 -0.6,5.2 0,7.7 0.8,-1.1 1.2,-2.4 1.2,-3.9 0,-1.4 -0.5,-2.7 -1.2,-3.8 z" id="path151" fill="#773F45"/>
          </g>
          <g id="g153">
            <path class="st5" d="m 265.2,140.2 c -4.7,-8.1 -15,-10.9 -23.1,-6.2 -4.6,2.6 -7.4,7.1 -8.2,11.9 2.7,4.6 6.6,8.6 11.6,11.5 5,2.9 10.4,4.3 15.7,4.3 6.3,-5.1 8.2,-14.2 4,-21.5 z" id="path155" fill="#58C0EE"/>
            <path class="st2" d="m 265.2,140.2 c -4.7,-8.1 -15,-10.9 -23.1,-6.2 -3.5,2 -6,5.1 -7.4,8.7 2.5,5.2 6.6,9.6 11.9,12.7 5.3,3.1 11.2,4.3 17,3.9 4.3,-5.2 5.2,-12.8 1.6,-19.1 z" id="path157" fill="#2C7693"/>
            <path class="st6" d="m 265.2,140.2 c -4.7,-8.1 -15,-10.9 -23.1,-6.2 -2.6,1.5 -4.6,3.6 -6,5.9 2.2,5.5 6.2,10.3 11.7,13.4 5.5,3.2 11.7,4.2 17.5,3.5 2.8,-4.9 2.9,-11.2 -0.1,-16.6 z" id="path159" fill="#1C4C63"/>
            <path class="st1" d="m 265.2,140.2 c -4.7,-8.1 -15,-10.9 -23.1,-6.2 -1.7,1 -3.2,2.3 -4.4,3.7 1.9,5.6 5.8,10.5 11.3,13.7 5.5,3.2 11.7,4.1 17.5,2.9 1.5,-4.4 1.2,-9.6 -1.3,-14.1 z" id="path161" fill="#E45B5C"/>
            <path class="st1" d="m 265.2,140.2 c -4.7,-8.1 -15,-10.9 -23.1,-6.2 -1.3,0.8 -2.5,1.7 -3.5,2.7 1.8,5.6 5.5,10.5 11,13.7 5.5,3.1 11.6,3.9 17.3,2.7 1.1,-4.2 0.6,-8.8 -1.7,-12.9 z" id="path163" fill="#E45B5C"/>
            <path class="st3" d="m 265.2,140.2 c -4.7,-8.1 -15,-10.9 -23.1,-6.2 -0.9,0.5 -1.8,1.2 -2.6,1.9 1.6,5.5 5.2,10.4 10.6,13.5 5.4,3.1 11.5,3.8 17,2.4 0.7,-3.8 0.2,-7.9 -1.9,-11.6 z" id="path165" fill="#773F45"/>
            <path class="st4" d="m 265.2,140.2 c -4.7,-8.1 -15,-10.9 -23.1,-6.2 -0.2,0.1 -0.4,0.3 -0.6,0.4 1.3,5.3 4.7,10.1 9.8,13 5.1,2.9 10.9,3.5 16.2,1.9 0,-3 -0.7,-6.2 -2.3,-9.1 z" id="path167" fill="#FBD089"/>
            <path class="st8" d="m 243.6,133.3 c 1,4.9 4.1,9.5 8.8,12.2 4.7,2.7 10.1,3.1 14.9,1.5 -0.2,-2.3 -0.9,-4.6 -2.2,-6.8 -4.3,-7.6 -13.7,-10.5 -21.5,-6.9 z" id="path169" fill="#827A5C"/>
            <path class="st5" d="m 245.8,132.5 c 0.8,4.5 3.5,8.5 7.8,11 4.2,2.4 9.1,2.7 13.4,1.2 -0.4,-1.5 -1,-3 -1.8,-4.5 -4,-6.9 -12.1,-9.9 -19.4,-7.7 z" id="path171" fill="#58C0EE"/>
            <path class="st2" d="m 248,132 c 0.7,3.8 3,7.4 6.7,9.5 3.6,2.1 7.9,2.4 11.5,1 -0.3,-0.8 -0.6,-1.5 -1.1,-2.3 C 261.6,134 254.7,131 248,132 Z" id="path173" fill="#2C7693"/>
            <path class="st6" d="m 250.3,131.8 c 0.6,3.1 2.5,6 5.5,7.7 3,1.7 6.4,1.9 9.4,0.9 0,-0.1 -0.1,-0.1 -0.1,-0.2 -3.1,-5.5 -8.9,-8.5 -14.8,-8.4 z" id="path175" fill="#1C4C63"/>
            <path class="st1" d="m 252.7,131.9 c 0.6,2.2 2.1,4.3 4.3,5.5 2.2,1.3 4.7,1.5 6.9,0.9 -2.8,-3.5 -6.8,-5.8 -11.2,-6.4 z" id="path177" fill="#E45B5C"/>
            <path class="st3" d="m 255.4,132.5 c 0.6,1.2 1.5,2.2 2.8,3 1.2,0.7 2.6,1 4,0.9 -2,-1.8 -4.3,-3.1 -6.8,-3.9 z" id="path179" fill="#773F45"/>
          </g>
          <g id="g181">
            <path class="st2" d="m 259,163.3 c 8.1,-4.7 10.9,-15 6.2,-23.1 -0.5,-0.8 -1,-1.5 -1.6,-2.2 -5.7,-0.4 -11.6,0.9 -17,4 -5.3,3.1 -9.4,7.6 -11.9,12.7 0.3,0.8 0.7,1.7 1.2,2.5 4.7,8 15,10.8 23.1,6.1 z" id="path183" fill="#2C7693"/>
            <path class="st6" d="m 259,163.3 c 8,-4.6 10.8,-14.8 6.3,-22.8 -5.9,-0.8 -12,0.3 -17.5,3.5 -5.5,3.2 -9.5,8 -11.7,13.4 4.7,7.9 14.9,10.5 22.9,5.9 z" id="path185" fill="#1C4C63"/>
            <path class="st1" d="m 259,163.3 c 7.2,-4.1 10.2,-12.8 7.5,-20.3 -5.8,-1.1 -12,-0.3 -17.5,2.9 -5.5,3.2 -9.4,8.1 -11.3,13.7 5.1,6.1 14.1,7.9 21.3,3.7 z" id="path187" fill="#E45B5C"/>
            <path class="st3" d="m 259,163.3 c 6.4,-3.7 9.5,-10.9 8.1,-17.8 -5.6,-1.4 -11.7,-0.7 -17,2.4 -5.4,3.1 -9,8 -10.6,13.5 5.3,4.6 13.1,5.6 19.5,1.9 z" id="path189" fill="#773F45"/>
            <path class="st4" d="m 259,163.3 c 5.6,-3.3 8.7,-9.3 8.4,-15.3 -5.2,-1.5 -11.1,-1 -16.2,1.9 -5.1,2.9 -8.5,7.7 -9.8,13 5.2,3.3 11.9,3.7 17.6,0.4 z" id="path191" fill="#FBD089"/>
            <path class="st8" d="m 259,163.3 c 4.9,-2.8 7.8,-7.7 8.4,-12.9 -4.8,-1.6 -10.2,-1.2 -14.9,1.5 -4.7,2.7 -7.8,7.2 -8.8,12.2 4.7,2.1 10.4,2 15.3,-0.8 z" id="path193" fill="#827A5C"/>
            <path class="st5" d="m 259,163.3 c 4.2,-2.4 6.9,-6.3 8,-10.7 -4.3,-1.5 -9.2,-1.2 -13.4,1.2 -4.2,2.4 -6.9,6.5 -7.8,11 4.2,1.3 9,0.9 13.2,-1.5 z" id="path195" fill="#58C0EE"/>
            <path class="st2" d="m 259,163.3 c 3.4,-2 5.9,-5 7.3,-8.5 -3.7,-1.3 -7.9,-1.1 -11.5,1 -3.7,2.1 -6,5.6 -6.7,9.5 3.6,0.6 7.4,0 10.9,-2 z" id="path197" fill="#2C7693"/>
            <path class="st6" d="m 259,163.3 c 2.7,-1.6 4.8,-3.8 6.3,-6.4 -3,-1 -6.4,-0.8 -9.4,0.9 -3,1.7 -4.9,4.6 -5.5,7.7 2.9,0.1 5.8,-0.6 8.6,-2.2 z" id="path199" fill="#1C4C63"/>
            <path class="st1" d="m 263.9,159 c -2.3,-0.6 -4.8,-0.3 -6.9,0.9 -2.2,1.3 -3.7,3.3 -4.3,5.5 2.1,-0.3 4.3,-1 6.3,-2.1 2,-1.1 3.6,-2.6 4.9,-4.3 z" id="path201" fill="#E45B5C"/>
            <path class="st3" d="m 262.1,161 c -1.3,-0.1 -2.7,0.2 -3.9,0.9 -1.2,0.7 -2.2,1.8 -2.8,3 1.2,-0.4 2.4,-0.9 3.6,-1.5 1.1,-0.7 2.2,-1.5 3.1,-2.4 z" id="path203" fill="#773F45"/>
          </g>
        </g>
      </g>
    </g>
  </g>
</svg>