<?xml version="1.0" encoding="UTF-8" standalone="yes"?>
<svg version="1.2" xml:space="preserve" width="116.25973" height="116.25973" viewBox="0 0 116.25973 116.25973" baseProfile="tiny-ps" xmlns="http://www.w3.org/2000/svg">
  <title>bimi-svg-tiny-12-ps</title>
  <defs id="defs6"/>
  <g id="g10" transform="matrix(1.3333333,0,0,-1.3333333,-256.65493,159.86406)">
    <g id="g22" transform="translate(279.686,80.849)">
      <path d="m 0,-21.302106 c -10.549,4.596 -17.923,12.9470003 -25.782,20.69300028 C -34.15,7.6378943 -43.36,14.355894 -55.237,16.676894 c -7.687,1.504 -15.324,1.381 -23.098,-0.108 14.481,-1.813 24.006,-10.8179997 32.232,-21.7779997 3.582,-4.773 7.141,-9.5840003 11.595,-13.6220003 9.224,-8.366 23.496,-9.454 34.508,-2.471" id="path24" fill="#27afe6" fill-opacity="1" fill-rule="nonzero" stroke="none"/>
    </g>
    <g id="g26" transform="translate(192.4912,114.8607)">
      <path d="m 0,-21.302106 c 6.441,-3.389 10.14,-9.054 13.529,-15.053 1.993,-3.53 4.039,-7.036 6.599,-10.224 5.779,-7.197 13.424,-9.052 22.168,-8.038 2.283,0.264 2.136,0.956 0.851,2.517 -4.676,5.684 -9.252,11.448 -13.834,17.209 -7.47,9.394 -17.42,13.509 -29.313,13.589" id="path28" fill="#27afe6" fill-opacity="1" fill-rule="nonzero" stroke="none"/>
    </g>
    <g id="g54" transform="translate(667.2969,26.684)"/>
  </g>
</svg>